<svg xmlns="http://www.w3.org/2000/svg" viewBox="0 18.600000381469727 196 29.69999885559082" data-asc="0.93" width="196" height="29.69999885559082"><defs/><g fill="#ffffff"><g transform="translate(0, 0)"><path d="M10.25 47.60Q7.40 47.60 5.08 46.75Q2.75 45.90 1.38 44.48Q0 43.05 0 41.35Q0 39.60 1.38 38.17Q2.75 36.75 5.08 35.90Q7.40 35.05 10.25 35.05Q13.10 35.05 15.43 35.90Q17.75 36.75 19.13 38.17Q20.50 39.60 20.50 41.35Q20.50 43.05 19.13 44.48Q17.75 45.90 15.43 46.75Q13.10 47.60 10.25 47.60M6.15 45.75L6.30 45.55Q5.50 44.75 4.98 43.67Q4.45 42.60 4.45 41.35Q4.45 40.10 4.98 39.02Q5.50 37.95 6.30 37.15L6.15 36.95Q4.30 37.60 3.15 38.80Q2.00 40 2.00 41.35Q2.00 42.70 3.15 43.88Q4.30 45.05 6.15 45.75ZM76.85 48.30L47.25 30.40Q47.20 30.35 46.60 30.07Q46 29.80 45.20 29.80Q44.50 29.80 43.88 30.35Q43.25 30.90 43.25 32.65L43.25 34.55Q43.25 37.25 44.53 39.13Q45.80 41 47.83 42.15Q49.85 43.30 52.18 43.83Q54.50 44.35 56.60 44.35L56.60 46.50L26.80 46.50L26.80 44.35Q28.95 44.35 31.28 43.83Q33.60 43.30 35.63 42.15Q37.65 41 38.93 39.13Q40.20 37.25 40.20 34.55L40.20 30.15Q40.20 28 39.03 26.27Q37.85 24.55 35.88 23.30Q33.90 22.05 31.43 21.40Q28.95 20.75 26.30 20.75L26.30 18.60L58.35 18.60L73.10 27.90Q73.20 27.95 73.70 28.25Q74.20 28.55 74.90 28.95Q75.60 29.35 76.23 29.65Q76.85 29.95 77.10 29.95Q77.30 29.95 77.60 29.75Q77.90 29.55 77.90 28.90Q77.90 26.20 77 24.57Q76.10 22.95 74.63 22.13Q73.15 21.30 71.48 21.02Q69.80 20.75 68.20 20.75L68.20 18.60L90.60 18.60L90.60 20.75Q89.05 20.75 87.35 21.02Q85.65 21.30 84.18 22.13Q82.70 22.95 81.80 24.57Q80.90 26.20 80.90 28.90L80.90 48.30L76.85 48.30M76.80 44.60L76.80 41.90L42.65 20.75L41.75 20.75L41.75 22.85L76.80 44.60ZM95.00 46.50L95.00 44.35L100.25 44.35Q102.15 44.35 103.43 43.38Q104.70 42.40 104.70 39.95L104.70 25.20Q104.70 23.40 103.43 22.07Q102.15 20.75 100.25 20.75L95.00 20.75L95.00 18.60L146.55 18.60L146.55 28.60L145.10 28.60Q143.75 26.75 141.33 24.95Q138.90 23.15 135.18 21.95Q131.45 20.75 126.20 20.75Q124.05 20.75 122.83 21.88Q121.60 23 121.60 24.75L121.60 26.75Q121.60 28.05 122.30 29.22Q123.00 30.40 125.15 30.40Q127 30.40 129.10 29.68Q131.20 28.95 132.93 27.70Q134.65 26.45 135.35 25L137.20 25L137.20 38.20L135.35 38.20Q134.65 36.60 132.93 35.48Q131.20 34.35 129.10 33.77Q127 33.20 125.15 33.20Q123.00 33.20 122.30 34.35Q121.60 35.50 121.60 36.85L121.60 40.20Q121.60 42.05 122.35 43.20Q123.10 44.35 125 44.35L128.85 44.35Q131.60 44.35 134.55 43.77Q137.50 43.20 140.25 41.65Q143 40.10 145.10 37.20L146.55 37.20L146.55 46.50L95.00 46.50M107.80 44.35L110.35 44.35L110.35 20.75L107.80 20.75L107.80 44.35ZM156.30 46.50L156.30 44.35L161.60 44.35Q163.45 44.35 164.75 43.35Q166.05 42.35 166.05 39.90L166.05 22.70Q166.05 21.85 165.73 21.30Q165.40 20.75 164.65 20.75Q163.85 20.75 162.63 21.77Q161.40 22.80 160.05 24.32Q158.70 25.85 157.50 27.40Q156.30 28.95 155.55 29.97Q154.80 31 154.80 31L153 31L153.70 18.60L195.30 18.60L196 31L194.20 31Q194.20 31 193.45 29.97Q192.70 28.95 191.50 27.40Q190.30 25.85 188.95 24.32Q187.60 22.80 186.38 21.77Q185.15 20.75 184.40 20.75Q183.60 20.75 183.25 21.30Q182.90 21.85 182.90 22.70L182.90 39.90Q182.90 42.35 184.23 43.35Q185.55 44.35 187.40 44.35L192.70 44.35L192.70 46.50L156.30 46.50M169.20 44.35L171.65 44.35L171.65 20.75L169.20 20.75L169.20 44.35Z"/></g></g></svg>