<svg xmlns="http://www.w3.org/2000/svg" viewBox="0 21.020000457763672 92.72000122070312 50.2400016784668" data-asc="1.091796875" width="92.72000122070312" height="50.2400016784668"><defs/><g fill="#ffffff"><g transform="translate(0, 0)"><path d="M31.05 47.02Q30.13 46.29 30.13 45.31L30.13 45.12Q30.13 44.14 31.01 43.26L30.66 42.94Q29.79 43.82 28.83 43.82L26.46 43.82Q24.98 43.82 24.02 44.78L23.51 44.26Q24.49 43.29 24.49 41.85L24.49 38.23Q24.49 36.77 23.51 35.79L24.02 35.30Q24.95 36.23 26.46 36.23L41.46 36.23Q42.97 36.23 43.90 35.30L44.36 35.79Q43.43 36.72 43.43 38.23L43.43 48.46Q43.43 49.22 43.64 49.67Q43.85 50.12 44.48 50.46L44.09 51.17Q43.65 50.95 43.10 50.95Q42.55 50.95 41.85 51.42Q36.18 55.20 25.73 55.66L25.73 58.01L26.12 60.72Q26.12 61.30 25.88 61.62Q25.63 61.94 25.33 61.94Q25.02 61.94 24.78 61.65Q24.54 61.35 24.54 61.07Q24.54 60.79 24.63 60.30Q24.93 58.79 24.93 57.23Q24.93 55.66 24.71 55.66Q19.92 55.66 14.65 55.00Q14.43 54.93 14.43 57.62Q14.43 60.30 14.88 63.16Q15.33 66.02 15.33 67.14Q15.33 69.41 13.94 69.41Q13.28 69.41 12.81 68.90Q12.33 68.38 12.33 67.25Q12.33 66.11 13.13 63.20Q13.94 60.28 13.94 58.64L13.94 54.83Q0 51.71 0 38.01Q0 27.59 8.59 23.44Q13.55 21.02 20.70 21.02Q32.25 21.02 38.43 25.54Q41.77 27.98 42.70 31.10Q43.14 32.57 44.26 33.35L43.90 33.84Q42.90 33.11 41.26 33.11L30.96 33.45Q29.42 33.54 28.88 34.62L28.08 34.23Q28.27 33.81 28.27 33.28Q28.27 32.74 27.44 31.63Q26.61 30.52 25.16 29.94Q23.71 29.37 21.33 29.37Q18.95 29.37 17.46 30.05Q15.97 30.74 15.09 31.93Q13.38 34.35 13.38 38.33Q13.38 42.31 15.93 44.89Q18.48 47.46 22.61 47.46Q26.73 47.46 28.88 46.92Q29.27 46.83 29.64 46.83Q30.00 46.83 30.76 47.41L31.05 47.02ZM71.39 58.54L71.56 56.20Q71.56 55.59 70.97 55.26Q70.39 54.93 69.70 54.93Q69.02 54.93 68.48 55.30Q67.94 55.66 67.94 56.35L67.94 61.96Q67.94 63.18 68.46 65.55Q68.97 67.92 68.97 68.93Q68.97 69.95 68.53 70.61Q68.09 71.26 67.32 71.26Q66.55 71.26 66.16 70.58Q65.77 69.90 65.77 68.80Q65.77 67.70 66.33 64.99Q66.89 62.28 66.89 60.79Q66.89 54.76 64.65 54.76Q61.62 54.76 61.62 54.52L61.62 54.57Q61.62 56.25 62.37 59.51Q63.11 62.77 63.11 64.18Q63.11 65.60 62.60 66.52Q62.08 67.43 61.02 67.43Q59.96 67.43 59.36 66.55Q58.76 65.67 58.76 64.27Q58.76 62.87 59.47 59.46Q60.18 56.05 60.18 54.30Q54.39 52.47 51.48 48.32Q48.56 44.17 48.56 38.06Q48.56 25.42 61.30 22.09Q65.43 21.02 69.84 21.02Q74.24 21.02 77.33 21.51Q80.42 22.00 83.31 23.23Q86.21 24.46 88.24 26.35Q90.28 28.25 91.50 31.24Q92.72 34.23 92.72 38.06Q92.72 45.87 88.33 50.16Q83.94 54.44 75.98 55.42Q75.88 55.59 75.88 55.96L76.00 57.30Q76.00 58.54 75.32 58.54Q74.63 58.54 74.63 57.35L74.71 55.98Q74.71 55.25 73.66 55.25Q73.56 55.47 73.56 56.08L73.68 58.45Q73.68 59.18 73.41 59.86Q73.14 60.55 72.51 60.55Q71.39 60.55 71.39 58.54M62.16 38.09Q62.16 47.02 70.65 47.02Q79.15 47.02 79.15 38.09Q79.15 33.98 76.95 31.81Q74.76 29.64 70.65 29.64Q66.55 29.64 64.36 31.81Q62.16 33.98 62.16 38.09Z"/></g></g></svg>